<?xml version="1.0" encoding="UTF-8" standalone="no"?>
<!-- Created with Inkscape (http://www.inkscape.org/) -->

<svg
   xmlns:svg="http://www.w3.org/2000/svg"
   xmlns="http://www.w3.org/2000/svg"
   version="1.1"
   width="48"
   height="48"
   id="socialicon">
  <defs
     id="sicon-defines">
    <linearGradient
       x1="24"
       y1="1"
       x2="24"
       y2="47"
       id="gr-highlight-border"
       gradientUnits="userSpaceOnUse">
      <stop
         id="grhbo1"
         style="stop-color:#ffffff;stop-opacity:0.58823532"
         offset="0" />
      <stop
         id="grhbo2"
         style="stop-color:#ffffff;stop-opacity:0"
         offset="0.36302474" />
      <stop
         id="grhbo3"
         style="stop-color:#ffffff;stop-opacity:0"
         offset="0.90756184" />
      <stop
         id="grhbo4"
         style="stop-color:#ffffff;stop-opacity:0.19607843"
         offset="1" />
    </linearGradient>
    <linearGradient
       x1="10"
       y1="1"
       x2="10"
       y2="28.484131"
       id="gr-highlight-background"
       gradientUnits="userSpaceOnUse">
      <stop
         id="grhba1"
         style="stop-color:#ffffff;stop-opacity:0.39215687"
         offset="0" />
      <stop
         id="grhba2"
         style="stop-color:#ffffff;stop-opacity:0"
         offset="1" />
    </linearGradient>
  </defs>
  <g
     id="template">
    <path
       d="m 5,0 38,0 c 2.77,0 5,2.23 5,5 l 0,38 c 0,2.77 -2.23,5 -5,5 L 5,48 C 2.23,48 0,45.77 0,43 L 0,5 C 0,2.23 2.23,0 5,0 z"
       id="background"
       style="fill:#babdb6;fill-opacity:1;stroke:none" />
    <path
       d="m 5.5,1 37,0 C 44.993,1 47,3.007 47,5.5 l 0,20.488 c 0,2.493 -2.007,4.5 -4.5,4.5 l -37,0 C 3.007,30.488 1,28.481 1,25.988 L 1,5.5 C 1,3.007 3.007,1 5.5,1 z"
       id="highlight-background"
       style="fill:url(#gr-highlight-background);fill-opacity:1;stroke:none" />
    <path
       d="M 5.5,1 C 3.007,1 1,3.007 1,5.5 l 0,37 C 1,44.993 3.007,47 5.5,47 l 37,0 c 2.493,0 4.5,-2.007 4.5,-4.5 l 0,-37 C 47,3.007 44.993,1 42.5,1 L 5.5,1 z M 6,2 42,2 c 2.216,0 4,1.784 4,4 l 0,36 c 0,2.216 -1.784,4 -4,4 L 6,46 C 3.784,46 2,44.216 2,42 L 2,6 C 2,3.784 3.784,2 6,2 z"
       id="highlight-border"
       style="fill:url(#gr-highlight-border);fill-opacity:1;stroke:none" />
    <g
       transform="matrix(1.75,0,0,1.75,-7.5,-9.25)"
       id="g3718">
      <path
         d="m 20,23 a 5,5 0 1 1 -10,0 5,5 0 1 1 10,0 z"
         transform="translate(-2.5714286,-4)"
         id="path2922"
         style="fill:#0063dc;fill-opacity:1;stroke:none" />
      <path
         d="m 20,23 a 5,5 0 1 1 -10,0 5,5 0 1 1 10,0 z"
         transform="translate(8.5714286,-4)"
         id="path2922-4"
         style="fill:#ff0084;fill-opacity:1;stroke:none" />
    </g>
  </g>
</svg>
