<?xml version="1.0" encoding="UTF-8" standalone="no"?>
<svg xmlns:svg="http://www.w3.org/2000/svg" xmlns="http://www.w3.org/2000/svg" version="1.1" width="48" height="48" id="socialicon">
  <defs id="sicon-defines">
    <linearGradient x1="24" y1="1" x2="24" y2="47" id="gr-highlight-border" gradientUnits="userSpaceOnUse">
      <stop id="grhbo1" style="stop-color:#ffffff;stop-opacity:0.58823532" offset="0"/>
      <stop id="grhbo2" style="stop-color:#ffffff;stop-opacity:0" offset="0.36302474"/>
      <stop id="grhbo3" style="stop-color:#ffffff;stop-opacity:0" offset="0.90756184"/>
      <stop id="grhbo4" style="stop-color:#ffffff;stop-opacity:0.19607843" offset="1"/>
    </linearGradient>
    <linearGradient x1="10" y1="1" x2="10" y2="28.484131" id="gr-highlight-background" gradientUnits="userSpaceOnUse">
      <stop id="grhba1" style="stop-color:#ffffff;stop-opacity:0.39215687" offset="0"/>
      <stop id="grhba2" style="stop-color:#ffffff;stop-opacity:0" offset="1"/>
    </linearGradient>
  </defs>
  <g id="steam">
    <path d="m 5,0 38,0 c 2.77,0 5,2.23 5,5 l 0,38 c 0,2.77 -2.23,5 -5,5 L 5,48 C 2.23,48 0,45.77 0,43 L 0,5 C 0,2.23 2.23,0 5,0 z" id="background" style="fill:#4c5844;fill-opacity:1;stroke:none"/>
    <path d="m 5.5,1 37,0 C 44.993,1 47,3.007 47,5.5 l 0,20.488 c 0,2.493 -2.007,4.5 -4.5,4.5 l -37,0 C 3.007,30.488 1,28.481 1,25.988 L 1,5.5 C 1,3.007 3.007,1 5.5,1 z" id="highlight-background" style="fill:url(#gr-highlight-background);fill-opacity:1;stroke:none"/>
    <path d="M 5.5,1 C 3.007,1 1,3.007 1,5.5 l 0,37 C 1,44.993 3.007,47 5.5,47 l 37,0 c 2.493,0 4.5,-2.007 4.5,-4.5 l 0,-37 C 47,3.007 44.993,1 42.5,1 L 5.5,1 z M 6,2 42,2 c 2.216,0 4,1.784 4,4 l 0,36 c 0,2.216 -1.784,4 -4,4 L 6,46 C 3.784,46 2,44.216 2,42 L 2,6 C 2,3.784 3.784,2 6,2 z" id="highlight-border" style="fill:url(#gr-highlight-border);fill-opacity:1;stroke:none"/>
    <path d="m 40.990312,20.370562 c 0,1.556077 -1.262902,2.818979 -2.818984,2.818979 -1.556068,0 -2.818977,-1.262902 -2.818977,-2.818979 0,-1.556077 1.262909,-2.818979 2.818977,-2.818979 1.556082,0 2.818984,1.262902 2.818984,2.818979 z m -2.833075,-5.247638 c -2.890231,0 -5.237651,2.330895 -5.2639,5.215111 l -3.279776,4.700106 c -0.133614,-0.01383 -0.269415,-0.02168 -0.406582,-0.02168 -0.732767,0 -1.417562,0.201434 -2.005813,0.552954 L 12.347313,19.595346 c -0.388206,-1.762306 -1.963099,-3.090034 -3.8381479,-3.090034 -2.164868,-1e-6 -3.930303,1.770861 -3.930303,3.935728 0,2.164866 1.765435,3.930307 3.930303,3.930307 0.73274,-1e-6 1.4175628,-0.201423 2.0058129,-0.552954 l 14.853853,5.963226 c 0.38428,1.766424 1.959338,3.095456 3.838148,3.095456 2.035098,0 3.71416,-1.559988 3.908622,-3.545408 l 5.041636,-3.686358 c 2.905923,-1e-6 5.263901,-2.353392 5.263901,-5.25848 0,-2.906751 -2.357764,-5.263902 -5.263901,-5.263902 z m 0,1.734756 c 1.947056,0 3.529145,1.582039 3.529145,3.529145 0,1.947106 -1.582089,3.523724 -3.529145,3.523724 -1.947055,-1e-6 -3.529145,-1.576618 -3.529145,-3.523724 0,-1.947107 1.582083,-3.529145 3.529145,-3.529145 z M 8.5091651,17.546161 c 1.109795,0 2.0689319,0.620038 2.5533439,1.534176 l -1.4365929,-0.574638 0,0.0055 c -1.157429,-0.415648 -2.443233,0.150056 -2.905716,1.301067 -0.46249,1.15101 0.06956,2.453857 1.192641,2.954507 l 0,0.0055 1.219754,0.4879 c -0.200514,0.04367 -0.40937,0.07047 -0.62343,0.07047 -1.6017,0 -2.889451,-1.287754 -2.889451,-2.889454 0,-1.6017 1.287751,-2.894875 2.889451,-2.894875 z M 29.206979,26.05731 c 1.60179,-1e-6 2.889451,1.287658 2.889451,2.889454 -7e-6,1.601796 -1.287654,2.889454 -2.889451,2.889454 -1.11417,0 -2.076198,-0.621217 -2.558768,-1.539596 0.475166,0.191744 0.951153,0.38153 1.425753,0.574638 1.177723,0.473241 2.519042,-0.09589 2.992455,-1.273962 0.473406,-1.177728 -0.101485,-2.513793 -1.279381,-2.987035 L 28.58355,26.127784 c 0.20052,-0.04367 0.409363,-0.07047 0.623429,-0.07047 z" id="c-steam" style="fill:#eeeeec;fill-opacity:1;fill-rule:nonzero;stroke:none"/>
  </g>
</svg>
