<?xml version="1.0" encoding="UTF-8" standalone="no"?>
<!-- Created with Inkscape (http://www.inkscape.org/) -->

<svg
   xmlns:svg="http://www.w3.org/2000/svg"
   xmlns="http://www.w3.org/2000/svg"
   version="1.1"
   width="48"
   height="48"
   id="socialicon">
  <defs
     id="sicon-defines">
    <linearGradient
       x1="24"
       y1="1"
       x2="24"
       y2="47"
       id="gr-highlight-border"
       gradientUnits="userSpaceOnUse">
      <stop
         id="grhbo1"
         style="stop-color:#ffffff;stop-opacity:0.58823532"
         offset="0" />
      <stop
         id="grhbo2"
         style="stop-color:#ffffff;stop-opacity:0"
         offset="0.36302474" />
      <stop
         id="grhbo3"
         style="stop-color:#ffffff;stop-opacity:0"
         offset="0.90756184" />
      <stop
         id="grhbo4"
         style="stop-color:#ffffff;stop-opacity:0.19607843"
         offset="1" />
    </linearGradient>
    <linearGradient
       x1="10"
       y1="1"
       x2="10"
       y2="28.484131"
       id="gr-highlight-background"
       gradientUnits="userSpaceOnUse">
      <stop
         id="grhba1"
         style="stop-color:#ffffff;stop-opacity:0.39215687"
         offset="0" />
      <stop
         id="grhba2"
         style="stop-color:#ffffff;stop-opacity:0"
         offset="1" />
    </linearGradient>
  </defs>
  <g
     id="template">
    <path
       d="m 5,0 38,0 c 2.77,0 5,2.23 5,5 l 0,38 c 0,2.77 -2.23,5 -5,5 L 5,48 C 2.23,48 0,45.77 0,43 L 0,5 C 0,2.23 2.23,0 5,0 z"
       id="background"
       style="fill:#009fd4;fill-opacity:1;stroke:none" />
    <path
       d="m 5.5,1 37,0 C 44.993,1 47,3.007 47,5.5 l 0,20.488 c 0,2.493 -2.007,4.5 -4.5,4.5 l -37,0 C 3.007,30.488 1,28.481 1,25.988 L 1,5.5 C 1,3.007 3.007,1 5.5,1 z"
       id="highlight-background"
       style="fill:url(#gr-highlight-background);fill-opacity:1;stroke:none" />
    <path
       d="M 5.5,1 C 3.007,1 1,3.007 1,5.5 l 0,37 C 1,44.993 3.007,47 5.5,47 l 37,0 c 2.493,0 4.5,-2.007 4.5,-4.5 l 0,-37 C 47,3.007 44.993,1 42.5,1 L 5.5,1 z M 6,2 42,2 c 2.216,0 4,1.784 4,4 l 0,36 c 0,2.216 -1.784,4 -4,4 L 6,46 C 3.784,46 2,44.216 2,42 L 2,6 C 2,3.784 3.784,2 6,2 z"
       id="highlight-border"
       style="fill:url(#gr-highlight-border);fill-opacity:1;stroke:none" />
  </g>
  <g
     transform="matrix(0.5680017,0,0,0.5680017,-115.67163,-43.839948)"
     id="g2987"
     style="fill:#eeeeec">
    <path
       d="m 259.49352,119.49567 c 1.881,0 3.497,-0.673 4.842,-2.015 1.346,-1.344 2.018,-2.957 2.018,-4.837 0,-1.881 -0.672,-3.493 -2.023,-4.836 -1.35,-1.344 -2.969,-2.017 -4.856,-2.017 l -20.321,0 0,-6.851998 c 0,-1.883 -0.669,-3.494 -2.006,-4.835 -1.332,-1.347 -2.939,-2.018 -4.807,-2.018 -1.925,0 -3.556,0.66 -4.891,1.977 -1.335,1.319 -2.003,2.946 -2.003,4.881 l 0,27.350998 c 0,5.648 2.003,10.475 6.013,14.481 4.007,4.009 8.833,6.011 14.479,6.011 l 13.557,0 c 1.883,0 3.494,-0.671 4.839,-2.014 1.346,-1.341 2.018,-2.957 2.018,-4.837 0,-1.881 -0.672,-3.492 -2.018,-4.836 -1.345,-1.344 -2.961,-2.018 -4.842,-2.018 l -13.56,0 c -1.883,0 -3.485,-0.66 -4.804,-1.978 -1.319,-1.324 -1.977,-2.928 -1.977,-4.815 l 0,-6.794 20.342,0 0,0.001 z"
       id="path2976"
       style="fill:#eeeeec" />
  </g>
</svg>
